<svg xmlns="http://www.w3.org/2000/svg" width="24" height="25" fill="none" viewBox="0 0 24 25">
  <path fill="#000" d="M4 20.655c-.55 0-1.02-.195-1.412-.587A1.93 1.93 0 0 1 2 18.655v-12c0-.55.196-1.02.588-1.412A1.93 1.93 0 0 1 4 4.655h10.1a5.085 5.085 0 0 0 0 2H4l8 5 3.65-2.275c.233.217.488.405.763.563a6.2 6.2 0 0 0 .862.412L12 13.655l-8-5v10h16v-8.1a5.42 5.42 0 0 0 1.075-.35c.333-.15.642-.333.925-.55v9a1.93 1.93 0 0 1-.587 1.413 1.921 1.921 0 0 1-1.413.587H4Zm15-12a2.893 2.893 0 0 1-2.125-.875A2.893 2.893 0 0 1 16 5.655c0-.833.292-1.541.875-2.125A2.893 2.893 0 0 1 19 2.655c.833 0 1.542.292 2.125.875.583.584.875 1.292.875 2.125 0 .834-.292 1.542-.875 2.125A2.893 2.893 0 0 1 19 8.655Z"/>
</svg>
