<svg xmlns="http://www.w3.org/2000/svg" width="24" height="25" fill="none" viewBox="0 0 24 25">
  <path fill="#000" d="M12 12.455v-7.8c0-.283.096-.52.288-.712A.972.972 0 0 1 13 3.655h7c.283 0 .521.096.713.288.192.192.288.43.287.712v5a.968.968 0 0 1-.288.713.964.964 0 0 1-.712.287h-5l-2.15 2.15c-.167.167-.35.209-.55.125-.2-.083-.3-.241-.3-.475Zm2-3.8h5v-3h-5v3Zm5.95 13c-2.083 0-4.142-.454-6.175-1.362-2.033-.908-3.883-2.195-5.55-3.863-1.667-1.667-2.954-3.517-3.862-5.55C3.455 8.848 3.001 6.79 3 4.705c0-.3.1-.55.3-.75.2-.2.45-.3.75-.3H8.1c.233 0 .442.08.625.238a.915.915 0 0 1 .325.562l.65 3.5a1.77 1.77 0 0 1-.025.675 1.05 1.05 0 0 1-.275.475l-2.425 2.45c.333.617.729 1.213 1.187 1.787.458.575.962 1.13 1.513 1.663a17.65 17.65 0 0 0 1.625 1.438 15.73 15.73 0 0 0 1.8 1.212l2.35-2.35a1.4 1.4 0 0 1 .588-.337c.242-.074.48-.095.712-.063l3.45.7c.233.067.425.188.575.363a.88.88 0 0 1 .225.587v4.05c0 .3-.1.55-.3.75-.2.2-.45.3-.75.3Zm-13.925-12 1.65-1.65-.425-2.35H5.025c.083.684.2 1.359.35 2.025.15.667.367 1.325.65 1.975Zm8.95 8.95a12.29 12.29 0 0 0 4.025 1v-2.2l-2.35-.475-1.675 1.675Z"/>
</svg>
