<svg xmlns="http://www.w3.org/2000/svg" width="24" height="25" fill="none" viewBox="0 0 24 25">
  <path fill="#000" d="M20 12.655a1.02 1.02 0 0 1-.712-.288 1.122 1.122 0 0 1-.363-.712c-.217-1.55-.871-2.87-1.963-3.963C15.87 6.6 14.549 5.947 13 5.732a1.139 1.139 0 0 1-.712-.35A1.016 1.016 0 0 1 12 4.654c0-.284.1-.521.3-.712a.83.83 0 0 1 .7-.238c2.1.234 3.892 1.092 5.375 2.575 1.483 1.484 2.342 3.275 2.575 5.375a.82.82 0 0 1-.238.7c-.192.2-.43.3-.712.3Zm-4.175 0a.834.834 0 0 1-.575-.225 1.37 1.37 0 0 1-.375-.6 2.879 2.879 0 0 0-.763-1.287 2.898 2.898 0 0 0-1.287-.763 1.37 1.37 0 0 1-.6-.375.866.866 0 0 1-.225-.6c0-.333.117-.604.35-.812.233-.208.492-.279.775-.213a4.92 4.92 0 0 1 2.413 1.338 4.914 4.914 0 0 1 1.337 2.412c.067.284-.008.542-.225.775-.217.234-.492.35-.825.35Zm4.125 9c-2.083 0-4.142-.454-6.175-1.362-2.033-.908-3.883-2.195-5.55-3.863-1.667-1.667-2.954-3.517-3.862-5.55C3.455 8.848 3.001 6.79 3 4.705c0-.3.1-.55.3-.75.2-.2.45-.3.75-.3H8.1c.233 0 .442.08.625.238a.915.915 0 0 1 .325.562l.65 3.5a1.77 1.77 0 0 1-.025.675 1.05 1.05 0 0 1-.275.475l-2.425 2.45c.333.617.729 1.213 1.187 1.787.458.575.962 1.13 1.513 1.663a17.65 17.65 0 0 0 1.625 1.438 15.73 15.73 0 0 0 1.8 1.212l2.35-2.35a1.4 1.4 0 0 1 .588-.337c.242-.074.48-.095.712-.063l3.45.7c.233.067.425.188.575.363a.88.88 0 0 1 .225.587v4.05c0 .3-.1.55-.3.75-.2.2-.45.3-.75.3Zm-13.925-12 1.65-1.65-.425-2.35H5.025c.083.684.2 1.359.35 2.025.15.667.367 1.325.65 1.975Zm8.95 8.95a12.29 12.29 0 0 0 4.025 1v-2.2l-2.35-.475-1.675 1.675Z"/>
</svg>
