<svg xmlns="http://www.w3.org/2000/svg" viewBox="0 0 2310.43 472.54"><defs><style>.cls-1,.cls-2{fill:#fff;}.cls-2{fill-rule:evenodd;}</style></defs><g id="Layer_2" data-name="Layer 2"><g id="Layer_1-2" data-name="Layer 1"><polygon class="cls-1" points="618.32 148.59 589.17 99.71 552.39 99.71 599.38 178.23 599.38 222.91 634.23 222.91 634.23 178.77 681.39 99.71 647.6 99.71 618.32 148.59"/><path class="cls-1" d="M745.28,225.37q27.29,0,42.59-15T803.19,168V99.71H768.87v67.23q0,15.84-6.16,22.7t-17.08,6.87q-10.9,0-17.16-6.87t-6.24-22.7V99.71H687.38V168q0,27.45,15.31,42.41T745.28,225.37Z"/><polygon class="cls-1" points="861.62 174.86 909.14 174.86 909.14 222.91 943.99 222.91 943.99 99.71 909.14 99.71 909.14 146 861.62 146 861.62 99.71 826.77 99.71 826.77 222.91 861.62 222.91 861.62 174.86"/><rect class="cls-1" x="968.63" y="99.71" width="34.85" height="123.2"/><path class="cls-1" d="M1114.35,190.17h19l22.34,32.74H1193l-26.62-38.8a42.07,42.07,0,0,0,17.47-14.79q6.69-10.12,6.69-24,0-14.07-6.69-24.37A42.62,42.62,0,0,0,1165,105.16q-12.24-5.44-29.13-5.45H1079.5v123.2h34.85ZM1150,131.92q5.37,4.74,5.37,13.37,0,8.44-5.37,13.2t-16.28,4.75h-19.36V127.16h19.36Q1144.62,127.16,1150,131.92Z"/><polygon class="cls-1" points="1308.65 195.98 1244.23 195.98 1244.23 173.45 1298.97 173.45 1298.97 147.4 1244.23 147.4 1244.23 126.64 1306.36 126.64 1306.36 99.71 1209.74 99.71 1209.74 222.91 1308.65 222.91 1308.65 195.98"/><path class="cls-1" d="M1383.1,197a41.67,41.67,0,0,1-11.62,1.32,71,71,0,0,1-21.56-3.44,80.27,80.27,0,0,1-19.09-8.71l-11.44,25.7q8.79,6,22.79,9.77a111.17,111.17,0,0,0,29.13,3.78q18.3,0,30.36-5.45t18.12-14.53a34.83,34.83,0,0,0,6.08-19.8q0-9.68-3.79-16.1a30.68,30.68,0,0,0-9.94-10.38,57.41,57.41,0,0,0-13.64-6.34q-7.49-2.37-15-4t-13.73-3.08a33.59,33.59,0,0,1-10-3.87,7.25,7.25,0,0,1-3.79-6.43,8.89,8.89,0,0,1,1.94-5.63,13.27,13.27,0,0,1,6.34-4,37.17,37.17,0,0,1,11.61-1.49,63,63,0,0,1,16.72,2.37,83.63,83.63,0,0,1,17.43,7.13L1420.76,108a76,76,0,0,0-20.85-8,104.74,104.74,0,0,0-23.85-2.73q-18.13,0-30.27,5.46t-18.22,14.43a35,35,0,0,0-6.07,20.07q0,9.86,3.87,16.27a31.36,31.36,0,0,0,10,10.39,59.42,59.42,0,0,0,13.64,6.42,138.35,138.35,0,0,0,15,4.05q7.49,1.59,13.64,3.17a34.8,34.8,0,0,1,10,4.05,7.59,7.59,0,0,1,3.88,6.69,7.43,7.43,0,0,1-2,5.19A14.06,14.06,0,0,1,1383.1,197Z"/><rect class="cls-1" x="1441.88" y="99.71" width="34.85" height="123.2"/><path class="cls-1" d="M1619.9,128.57a58.16,58.16,0,0,0-24.2-21.29q-15.48-7.57-35.9-7.57h-58.26v123.2h58.26q20.42,0,35.9-7.57A58,58,0,0,0,1619.9,194q8.71-13.82,8.71-32.65Q1628.61,142.29,1619.9,128.57Zm-30.89,51a28.8,28.8,0,0,1-12.23,11.62,40.26,40.26,0,0,1-18.39,4h-22V127.51h22a40.26,40.26,0,0,1,18.39,4A29.07,29.07,0,0,1,1589,143q4.41,7.58,4.4,18.31Q1593.41,171.87,1589,179.52Z"/><polygon class="cls-1" points="1745.83 195.98 1681.41 195.98 1681.41 173.45 1736.15 173.45 1736.15 147.4 1681.41 147.4 1681.41 126.64 1743.54 126.64 1743.54 99.71 1646.92 99.71 1646.92 222.91 1745.83 222.91 1745.83 195.98"/><polygon class="cls-1" points="1799.33 157.25 1853.71 222.91 1882.4 222.91 1882.4 99.71 1848.26 99.71 1848.26 165.36 1793.88 99.71 1765.19 99.71 1765.19 222.91 1799.33 222.91 1799.33 157.25"/><polygon class="cls-1" points="1933.27 222.91 1968.12 222.91 1968.12 127.34 2005.78 127.34 2005.78 99.71 1895.43 99.71 1895.43 127.34 1933.27 127.34 1933.27 222.91"/><rect class="cls-1" x="2018.8" y="99.71" width="34.85" height="123.2"/><path class="cls-1" d="M2118.06,99.71l-54.38,123.2h35.55l9.61-23.94h52.24l9.61,23.94h36.25l-54.55-123.2Zm1.09,73.57,15.81-39.4,15.81,39.4Z"/><polygon class="cls-1" points="2251.65 195.28 2251.65 99.71 2216.8 99.71 2216.8 222.91 2310.43 222.91 2310.43 195.28 2251.65 195.28"/><path class="cls-1" d="M653.67,265.16q-12.23-5.45-29.12-5.45H568.23v123.2h34.84V350.7h21.48q16.89,0,29.12-5.54a43.35,43.35,0,0,0,18.92-15.76q6.69-10.2,6.69-24.11,0-14.07-6.69-24.37A42.56,42.56,0,0,0,653.67,265.16Zm-15,53.33q-5.37,4.75-16.28,4.75H603.07V287.16h19.36q10.92,0,16.28,4.76t5.37,13.37Q644.08,313.74,638.71,318.49Z"/><path class="cls-1" d="M800.55,329.32q6.68-10.12,6.68-24,0-14.07-6.68-24.37a42.62,42.62,0,0,0-18.92-15.76q-12.24-5.45-29.13-5.45H696.18v123.2H731V350.17h19l22.34,32.74H809.7l-26.62-38.8A42.07,42.07,0,0,0,800.55,329.32Zm-33.88-37.4q5.36,4.74,5.36,13.37,0,8.44-5.36,13.2t-16.28,4.75H731V287.16h19.36Q761.3,287.16,766.67,291.92Z"/><path class="cls-1" d="M937.47,275.46A63.92,63.92,0,0,0,915.91,262a80.78,80.78,0,0,0-54.64,0,64.71,64.71,0,0,0-21.74,13.46,61.79,61.79,0,0,0-14.34,20.33,66.28,66.28,0,0,0,0,51,61.89,61.89,0,0,0,14.34,20.33,65,65,0,0,0,21.74,13.46,80.94,80.94,0,0,0,54.64,0,64.84,64.84,0,0,0,21.56-13.38,64.26,64.26,0,0,0,14.35-71.45A63.79,63.79,0,0,0,937.47,275.46Zm-18.21,60.28a33.62,33.62,0,0,1-7,11.18A30.19,30.19,0,0,1,901.66,354a36.05,36.05,0,0,1-26.23,0,30.28,30.28,0,0,1-10.56-7.12,33.62,33.62,0,0,1-7-11.18,42.36,42.36,0,0,1,0-28.95,33.72,33.72,0,0,1,7-11.09,30.44,30.44,0,0,1,10.56-7.13,36.19,36.19,0,0,1,26.23,0,30.35,30.35,0,0,1,10.56,7.13,33.72,33.72,0,0,1,7,11.09,42.36,42.36,0,0,1,0,28.95Z"/><path class="cls-1" d="M1060.76,265.16q-12.24-5.45-29.13-5.45H975.31v123.2h34.85V350.7h21.47q16.9,0,29.13-5.54a43.4,43.4,0,0,0,18.92-15.76q6.69-10.2,6.69-24.11,0-14.07-6.69-24.37A42.62,42.62,0,0,0,1060.76,265.16Zm-15,53.33q-5.37,4.75-16.28,4.75h-19.36V287.16h19.36q10.9,0,16.28,4.76t5.37,13.37Q1051.17,313.74,1045.8,318.49Z"/><polygon class="cls-1" points="1137.76 333.45 1192.5 333.45 1192.5 307.4 1137.76 307.4 1137.76 286.63 1199.89 286.63 1199.89 259.71 1103.27 259.71 1103.27 382.91 1202.18 382.91 1202.18 355.98 1137.76 355.98 1137.76 333.45"/><path class="cls-1" d="M1325.9,329.32q6.69-10.12,6.69-24,0-14.07-6.69-24.37A42.56,42.56,0,0,0,1307,265.16q-12.23-5.45-29.12-5.45h-56.32v123.2h34.84V350.17h19l22.33,32.74h37.32l-26.63-38.8A41.94,41.94,0,0,0,1325.9,329.32ZM1292,291.92q5.37,4.74,5.37,13.37,0,8.44-5.37,13.2t-16.28,4.75h-19.36V287.16h19.36Q1286.66,287.16,1292,291.92Z"/><polygon class="cls-1" points="1538.16 259.71 1508.88 308.59 1479.73 259.71 1448.75 259.71 1442.94 259.71 1338.4 259.71 1338.4 287.34 1376.24 287.34 1376.24 382.91 1411.09 382.91 1411.09 287.34 1448.75 287.34 1448.75 269.41 1489.93 338.23 1489.93 382.91 1524.78 382.91 1524.78 338.77 1571.95 259.71 1538.16 259.71"/><path class="cls-1" d="M1724.19,342.08a43.62,43.62,0,0,1-13.12,10.73,34,34,0,0,1-15.92,3.7,37.93,37.93,0,0,1-13.91-2.47,29.72,29.72,0,0,1-10.82-7.12,33.62,33.62,0,0,1-7-11.18,42.1,42.1,0,0,1,0-28.86,33.62,33.62,0,0,1,7-11.18,29.87,29.87,0,0,1,10.82-7.13,38.14,38.14,0,0,1,13.91-2.46,34.11,34.11,0,0,1,15.92,3.69,43.81,43.81,0,0,1,13.12,10.74l22.17-20.07a58.75,58.75,0,0,0-22.44-17.24q-13.45-6-30.53-6a76.18,76.18,0,0,0-27,4.67,62.8,62.8,0,0,0-21.47,13.29,61.76,61.76,0,0,0-14.17,20.32,67.73,67.73,0,0,0,0,51.57,61.7,61.7,0,0,0,14.17,20.33,62.8,62.8,0,0,0,21.47,13.29,76.4,76.4,0,0,0,27,4.66q17.07,0,30.53-6.07a60.27,60.27,0,0,0,22.44-17.16Z"/><path class="cls-1" d="M1799.34,259.71,1745,382.91h35.56l9.6-23.94h52.25l9.6,23.94h36.26l-54.56-123.2Zm1.08,73.57,15.81-39.4,15.81,39.4Z"/><path class="cls-1" d="M2002.44,329.32q6.69-10.12,6.69-24,0-14.07-6.69-24.37a42.56,42.56,0,0,0-18.92-15.76q-12.24-5.45-29.13-5.45h-56.32v123.2h34.85V350.17h19l22.34,32.74h37.31L1985,344.11A42,42,0,0,0,2002.44,329.32Zm-33.88-37.4q5.37,4.74,5.37,13.37,0,8.44-5.37,13.2t-16.28,4.75h-19.36V287.16h19.36Q1963.2,287.16,1968.56,291.92Z"/><polygon class="cls-1" points="2062.81 333.45 2117.54 333.45 2117.54 307.4 2062.81 307.4 2062.81 286.63 2124.94 286.63 2124.94 259.71 2028.31 259.71 2028.31 382.91 2127.22 382.91 2127.22 355.98 2062.81 355.98 2062.81 333.45"/><path class="cls-2" d="M103.71,38.36C22.64,93.71-18.69,196.09,8.16,296.27c34,126.83,164.35,202.1,291.18,168.11C403,436.62,472.17,344.51,475.49,242.56a224.39,224.39,0,0,1-163.15,179C192.64,453.6,69.61,382.57,37.53,262.86a224.38,224.38,0,0,1,66.18-224.5Z"/><path class="cls-2" d="M369.42,366.38A200.69,200.69,0,0,0,450,148.75C421.36,41.72,311.36-21.78,204.33,6.88A200.73,200.73,0,0,0,55.69,194.07a189.36,189.36,0,0,1,137.67-151c101-27.06,204.83,32.88,231.9,133.88a189.33,189.33,0,0,1-55.84,189.44Z"/><path class="cls-2" d="M299,202.05h0v-6.17h16.71c-8.81-8.33-17.6-16.27-26.41-23.73V128.09a5,5,0,0,0-4.85-5.26H264.21a5,5,0,0,0-4.84,5.26v16.74c-7.94-7.46-15.87-14.53-23.34-21.57-3.07-2.63-4.41-2.63-7.47,0C203,145.7,177.48,168.18,152,191.05a53.82,53.82,0,0,0-5.3,4.83h12.77v8.37c0,23.34.43,46.21,0,69.55,0,3.5.87,4.4,4.4,4.4,13.64-.47,26.84-.47,40.52,0,3.06,0,3.93-1.33,3.93-4.4-.44-11.47-.44-23.34,0-34.77,0-6.61,3.53-10.58,10.13-10.58H236.9c11,0,14.09,3.54,14.09,14.55v31.24c0,2.63.44,3.49,3.55,3.49h39.57c3.53.47,4.87-.43,4.87-3.06V202.05Z"/><path class="cls-2" d="M376,281.7c-2.2-5.7-11.47-9.23-22-7.9a27.93,27.93,0,0,0-8.38,1.77c-12.77,3.93-78.79,26.41-79.22,26.84l-1.33.43.86.87c7.5,6.17,11.05,12.77,9.27,18.51-2.19,7.89-12.77,12.77-30.79,14.07-15.41,1.33-35.22,0-58.13-4.41a50.78,50.78,0,0,1,7.94.44c16.7-.44,32.58-.44,44.44-.87,18.94-1.77,28.17-5.74,29.51-13.2.43-4.4-2.24-8.37-8.8-11.44-7.07-4-22-5.74-36.55-8.37-9.7-1.33-18.94-2.63-25.54-4.4-22.87-5.74-46.21-11.91-73-9.71a127.25,127.25,0,0,0-12.77,1.77,566.75,566.75,0,0,0-62.92,14.54l-2.66.43,31.71,45.78a113.7,113.7,0,0,1,17.17-3.06,112.51,112.51,0,0,1,21.54.43c8.84,1.73,30.37,6.13,51.51,10.1,21.57,4.83,42.24,8.8,50.14,9.7a45.78,45.78,0,0,0,13.24.44c10.58-.9,21.58-6.6,32.11-11.87,3.1-2.24,6.65-3.53,9.27-5.3l94.19-51.05c10.54-6.17,10.54-11.43,9.24-14.54Z"/></g></g></svg>